Coordinates
version=1
nRows=4
nColumns=107
inDegrees=yes

Units are S.I. units (second, meters, Newtons, ...)
If the header above contains a line with 'inDegrees', this indicates whether rotational values are in degrees (yes) or radians (no).

endheader
time	sternoclavicular_r2	sternoclavicular_r3	unrotscap_r3	unrotscap_r2	acromioclavicular_r2	acromioclavicular_r3	acromioclavicular_r1	unrothum_r1	unrothum_r3	unrothum_r2	elv_angle	shoulder_elv	shoulder1_r2	shoulder_rot	elbow_flexion	pro_sup	deviation	flexion	proximal_distal_r1	proximal_distal_r3	cmc_flexion	cmc_abduction	mp_flexion	ip_flexion	mcp2_flexion	mcp2_abduction	pm2_flexion	md2_flexion	mcp3_flexion	mcp3_abduction	pm3_flexion	md3_flexion	mcp4_flexion	mcp4_abduction	pm4_flexion	md4_flexion	mcp5_flexion	mcp5_abduction	pm5_flexion	md5_flexion	bicpt_tx	bicpt_ty	bicpt_tz	bicpt2_tx	bicpt2_ty	bicpt2_tz	ptpt_tx	ptpt_ty	ptpt_tz	FCUpt_tx	FCUpt_ty	FCUpt_tz	EDCpt_tx	EDCpt_ty	EDCpt_tz	APLpt_tx	APLpt_ty	APLpt_tz	FPLpt_tx	FPLpt_ty	FPLpt_tz	FPLpt2_tx	FPLpt2_ty	FPLpt2_tz	PEC1pt2_tx	PEC1pt2_ty	PEC1pt2_tz	PEC1pt3_tx	PEC1pt3_ty	PEC1pt3_tz	PEC2pt2_tx	PEC2pt2_ty	PEC2pt2_tz	PEC2pt3_tx	PEC2pt3_ty	PEC2pt3_tz	PEC3pt2_tx	PEC3pt2_ty	PEC3pt2_tz	PEC3pt3_tx	PEC3pt3_ty	PEC3pt3_tz	DELT2pt2a_tx	DELT2pt2a_ty	DELT2pt2a_tz	DELT2pt2_tx	DELT2pt2_ty	DELT2pt2_tz	LAT1pt2_tx	LAT1pt2_ty	LAT1pt2_tz	LAT1pt3_tx	LAT1pt3_ty	LAT1pt3_tz	LAT2pt2_tx	LAT2pt2_ty	LAT2pt2_tz	LAT2pt3_tx	LAT2pt3_ty	LAT2pt3_tz	LAT3pt2_tx	LAT3pt2_ty	LAT3pt2_tz	LAT3pt3_tx	LAT3pt3_ty	LAT3pt3_tz
      1.90000000	     -0.31076642	      0.13162599	     -0.13162599	      0.31076642	     -0.06292388	      0.50852865	      0.22858013	     -0.22858013	     -0.50852865	      0.06292388	    102.43316133	     73.57671117	     -1.78779593	    -41.06812299	     31.12231032	     86.04451832	      0.35253331	     -0.39644946	      0.37671350	     -0.19822473	     36.20166449	     -1.82762996	     -5.26808683	      5.91130418	     69.02139481	     12.01998758	     72.04885051	     69.38158866	     70.82928106	      2.82940637	     80.08510498	     54.84687782	     68.71149030	    -11.62898423	     89.70502332	     45.06849743	     63.06273586	    -14.04308890	     90.87263962	      5.62444214	      0.00092943	     -0.03116709	     -0.00487457	      0.01423530	     -0.01865453	     -0.00106841	      0.00119228	     -0.06901101	     -0.00698135	      0.01274312	     -0.18223623	      0.00008502	     -0.01032532	      0.00358046	     -0.00075865	      0.00027400	      0.00010960	      0.00054800	      0.00035072	      0.00105216	      0.00059184	     -0.00001284	     -0.00017695	     -0.00021235	      0.00241168	      0.00846133	      0.00588614	     -0.00788907	      0.01904821	     -0.01806719	      0.00241168	      0.00846133	      0.00588614	      0.00053139	      0.01765843	     -0.00927885	      0.00384865	      0.00470524	      0.01571984	      0.00000000	      0.00723655	      0.00000000	     -0.00690804	     -0.03192414	     -0.00596365	      0.02296525	     -0.00114987	     -0.01355061	     -0.00085840	      0.01438835	     -0.00588614	      0.00237081	      0.02076500	     -0.01716791	     -0.00576351	      0.01246718	     -0.00527300	     -0.01201754	      0.02632413	     -0.02947159	     -0.02256354	      0.01393871	     -0.00707155	     -0.01496061	      0.03041173	     -0.03682926
      1.93333333	     -0.31158295	      0.13197183	     -0.13197183	      0.31158295	     -0.06308921	      0.50986479	      0.22918072	     -0.22918072	     -0.50986479	      0.06308921	    101.76493424	     73.77003246	     -1.77613317	    -38.95453629	     31.70744599	     86.15971217	      0.37541722	     -0.26100187	      0.39413537	     -0.13050093	     35.18884045	     -3.71285603	     -6.80516074	      6.62650557	     60.56974475	     11.99988923	     67.71736544	     62.52176466	     62.73436921	      3.18322057	     77.62532237	     53.30959682	     61.75658149	    -11.02441634	     84.94895627	     46.65467636	     55.54657574	    -14.06959316	     87.53052342	      5.60078527	      0.00094878	     -0.03123416	     -0.00488537	      0.01422337	     -0.01881348	     -0.00104867	      0.00118377	     -0.06901651	     -0.00699063	      0.01275635	     -0.18223232	      0.00008821	     -0.01033914	      0.00358678	     -0.00076235	      0.00020999	      0.00008400	      0.00041998	      0.00026879	      0.00080637	      0.00045358	     -0.00001277	     -0.00019180	     -0.00023016	      0.00241802	      0.00848356	      0.00590161	     -0.00790979	      0.01909826	     -0.01811466	      0.00241802	      0.00848356	      0.00590161	      0.00053278	      0.01770482	     -0.00930323	      0.00385615	      0.00471760	      0.01573890	      0.00000000	      0.00727487	      0.00000000	     -0.00692619	     -0.03200802	     -0.00599548	      0.02231132	     -0.00107286	     -0.01230287	     -0.00086065	      0.01442615	     -0.00590161	      0.00237704	      0.02081956	     -0.01721302	     -0.00577866	      0.01249993	     -0.00528686	     -0.01204912	      0.02639330	     -0.02954902	     -0.02262283	      0.01397533	     -0.00709013	     -0.01499992	      0.03049164	     -0.03692603
      1.96666667	     -0.31114116	      0.13178471	     -0.13178471	      0.31114116	     -0.06299976	      0.50914186	      0.22885576	     -0.22885576	     -0.50914186	      0.06299976	    101.86940354	     73.66543445	     -1.77795650	    -39.40879629	     31.86189149	     86.85224781	      0.36883993	     -0.22071816	      0.38921565	     -0.11035908	     34.84333011	     -4.74381150	     -8.24133117	      6.41026146	     53.67806762	     11.93050554	     60.91591983	     53.66244212	     55.64117649	      3.45359875	     73.13188425	     51.07881193	     55.42248602	    -10.42624215	     78.91517201	     46.74414989	     49.01218483	    -14.10471112	     82.03963788	      5.59315728	      0.00095389	     -0.03125186	     -0.00488822	      0.01415098	     -0.01885544	     -0.00092958	      0.00113260	     -0.06904960	     -0.00704641	      0.01283602	     -0.18220877	      0.00010754	     -0.01042225	      0.00362489	     -0.00078478	      0.00018503	      0.00007401	      0.00037006	      0.00023684	      0.00071051	      0.00039966	     -0.00001268	     -0.00019661	     -0.00023593	      0.00241459	      0.00847153	      0.00589324	     -0.00789858	      0.01907118	     -0.01808897	      0.00241459	      0.00847153	      0.00589324	      0.00053203	      0.01767972	     -0.00929004	      0.00385210	      0.00471091	      0.01572860	      0.00000000	      0.00725412	      0.00000000	     -0.00691637	     -0.03196264	     -0.00597824	      0.02245689	     -0.00108935	     -0.01256781	     -0.00085943	      0.01440570	     -0.00589324	      0.00237367	      0.02079004	     -0.01718862	     -0.00577046	      0.01248221	     -0.00527936	     -0.01203203	      0.02635588	     -0.02950712	     -0.02259075	      0.01395552	     -0.00708007	     -0.01497865	      0.03044841	     -0.03687367
      2.00000000	     -0.31108585	      0.13176128	     -0.13176128	      0.31108585	     -0.06298856	      0.50905136	      0.22881508	     -0.22881508	     -0.50905136	      0.06298856	    101.66287140	     73.65234033	     -1.77435183	    -38.90795156	     32.30012523	     87.22532580	      0.37574371	     -0.12622471	      0.39437769	     -0.06311235	     34.05611838	     -6.06985213	     -8.94293802	      7.00583109	     46.34757918	     11.54676646	     54.03144053	     45.52921852	     48.01328073	      3.52812486	     67.42767186	     49.02601726	     48.48575362	     -9.65621155	     72.23269710	     45.71685641	     42.11444937	    -14.13022624	     75.70915803	      5.57090103	      0.00096839	     -0.03130209	     -0.00489631	      0.01411153	     -0.01897449	     -0.00086515	      0.00110503	     -0.06906742	     -0.00707647	      0.01287899	     -0.18219603	      0.00011811	     -0.01046701	      0.00364549	     -0.00079697	      0.00011581	      0.00004632	      0.00023161	      0.00014823	      0.00044470	      0.00025014	     -0.00001237	     -0.00020706	     -0.00024847	      0.00241416	      0.00847003	      0.00589219	     -0.00789717	      0.01906779	     -0.01808576	      0.00241416	      0.00847003	      0.00589219	      0.00053193	      0.01767658	     -0.00928839	      0.00385159	      0.00471007	      0.01572731	      0.00000000	      0.00725153	      0.00000000	     -0.00691514	     -0.03195696	     -0.00597609	      0.02229622	     -0.00107118	     -0.01227582	     -0.00085928	      0.01440314	     -0.00589219	      0.00237324	      0.02078634	     -0.01718556	     -0.00576944	      0.01247999	     -0.00527842	     -0.01202989	      0.02635119	     -0.02950188	     -0.02258674	      0.01395304	     -0.00707881	     -0.01497599	      0.03044299	     -0.03686712
